<svg xmlns="http://www.w3.org/2000/svg" width="128" height="128" viewBox="0 0 128 128"><rect width="100%" height="100%" fill="#DDDDDD"/><path fill="#999999" d="M31.725 68.575h2.21v1.57h-6.8v-1.57h2.49v-7.17q0-.42.02-.87l-1.77 1.48q-.15.11-.3.14-.15.03-.28.01-.13-.03-.23-.09t-.15-.14l-.67-.91 3.75-3.19h1.73v10.74Zm8.45-.39h3.16q.34 0 .54.2.2.19.2.5v1.26h-8.44v-.7q0-.21.09-.44.09-.24.29-.42l3.73-3.74q.47-.48.84-.91.37-.44.61-.86.25-.43.38-.86.13-.44.13-.93 0-.44-.12-.77-.13-.34-.36-.57-.24-.23-.57-.34-.32-.12-.73-.12-.38 0-.69.11-.32.1-.57.29-.25.2-.42.45-.17.26-.25.56-.15.39-.37.52-.23.13-.67.06l-1.1-.2q.12-.88.49-1.55.37-.66.91-1.11.55-.45 1.26-.67.71-.23 1.53-.23.85 0 1.55.25.71.25 1.21.71.5.46.78 1.11.28.64.28 1.43 0 .68-.2 1.26t-.53 1.11q-.34.52-.79 1.02-.45.49-.94 1l-2.77 2.83q.4-.12.79-.18.4-.07.75-.07Zm9.61.46q.52 0 .91-.15t.66-.42q.26-.26.4-.62.14-.37.14-.8 0-1.01-.56-1.53-.57-.51-1.55-.51-.99 0-1.55.51-.56.52-.56 1.53 0 .43.14.8.13.36.4.62.27.27.66.42.39.15.91.15Zm0-9.35q-.47 0-.81.15-.34.14-.56.39-.23.24-.34.55-.1.32-.1.66 0 .37.09.71.09.35.3.62.21.26.56.43.35.16.86.16t.86-.16q.35-.17.56-.43.21-.27.3-.62.09-.34.09-.71 0-.34-.11-.66-.11-.31-.33-.55-.22-.25-.56-.39-.34-.15-.81-.15Zm2.07 4.44q1.12.37 1.66 1.12.54.75.54 1.84 0 .81-.31 1.48-.31.66-.88 1.13-.56.47-1.34.72-.79.26-1.74.26t-1.74-.26q-.79-.25-1.35-.72t-.87-1.13q-.31-.67-.31-1.48 0-1.09.54-1.84.53-.75 1.65-1.12-.89-.37-1.33-1.06-.45-.69-.45-1.66 0-.7.28-1.3.29-.6.8-1.05.51-.45 1.22-.7.71-.25 1.56-.25.85 0 1.56.25.71.25 1.22.7.51.45.79 1.05.29.6.29 1.3 0 .97-.45 1.66-.44.69-1.34 1.06Zm15.93 3.6-1.11 1.09-2.88-2.88-2.91 2.9-1.11-1.1 2.9-2.91-2.77-2.77 1.11-1.11 2.77 2.77 2.75-2.75 1.12 1.1-2.76 2.77 2.89 2.89Zm11.64 1.24h2.21v1.57h-6.8v-1.57h2.49v-7.17q0-.42.02-.87l-1.76 1.48q-.16.11-.31.14-.14.03-.28.01-.13-.03-.23-.09t-.15-.14l-.67-.91 3.75-3.19h1.73v10.74Zm8.46-.39h3.15q.34 0 .54.2.2.19.2.5v1.26h-8.43v-.7q0-.21.09-.44.09-.24.28-.42l3.73-3.74q.47-.48.84-.91.37-.44.62-.86.24-.43.37-.86.14-.44.14-.93 0-.44-.13-.77-.13-.34-.36-.57-.24-.23-.56-.34-.33-.12-.74-.12-.37 0-.69.11-.32.1-.57.29-.24.2-.41.45-.17.26-.26.56-.14.39-.37.52-.23.13-.67.06l-1.1-.2q.13-.88.49-1.55.37-.66.92-1.11.54-.45 1.25-.67.71-.23 1.53-.23.85 0 1.56.25.7.25 1.2.71.5.46.78 1.11.29.64.29 1.43 0 .68-.2 1.26t-.54 1.11q-.34.52-.79 1.02-.45.49-.94 1l-2.77 2.83q.4-.12.79-.18.4-.07.76-.07Zm9.6.46q.52 0 .91-.15t.66-.42q.27-.26.4-.62.14-.37.14-.8 0-1.01-.56-1.53-.56-.51-1.55-.51-.98 0-1.55.51-.56.52-.56 1.53 0 .43.14.8.14.36.4.62.27.27.66.42.39.15.91.15Zm0-9.35q-.47 0-.81.15-.34.14-.56.39-.23.24-.33.55-.11.32-.11.66 0 .37.09.71.09.35.3.62.21.26.56.43.35.16.86.16t.86-.16q.35-.17.56-.43.21-.27.3-.62.09-.34.09-.71 0-.34-.11-.66-.11-.31-.33-.55-.22-.25-.56-.39-.34-.15-.81-.15Zm2.07 4.44q1.13.37 1.66 1.12.54.75.54 1.84 0 .81-.31 1.48-.31.66-.87 1.13-.56.47-1.35.72-.79.26-1.74.26t-1.74-.26q-.78-.25-1.34-.72-.57-.47-.88-1.13-.31-.67-.31-1.48 0-1.09.54-1.84t1.66-1.12q-.9-.37-1.34-1.06-.45-.69-.45-1.66 0-.7.29-1.3.28-.6.79-1.05.51-.45 1.22-.7.71-.25 1.56-.25.85 0 1.56.25.71.25 1.22.7.51.45.8 1.05.28.6.28 1.3 0 .97-.45 1.66-.44.69-1.34 1.06Z"/></svg>