<svg xmlns="http://www.w3.org/2000/svg" viewBox="-10 -2 102.2 102.5" x="0px" y="0px">
	<g>
		<g>
			<circle cx="79.8" cy="23.8" r="1.4" />
			<circle cx="74.2" cy="29.4" r="1.4" />
			<circle cx="79.8" cy="29.4" r="1.4" />
			<circle cx="46.2" cy="29.4" r="1.4" />
			<circle cx="63" cy="29.4" r="1.4" />
			<circle cx="68.6" cy="29.4" r="1.4" />
			<circle cx="74.2" cy="35" r="1.4" />
			<circle cx="79.8" cy="35" r="1.4" />
			<circle cx="46.2" cy="35" r="1.4" style="fill: rgb(217, 97, 54);" />
			<circle cx="51.8" cy="35" r="1.4" style="fill: rgb(217, 97, 54);" />
			<circle cx="57.4" cy="35" r="1.4" style="fill: rgb(217, 97, 54);" />
			<circle cx="63" cy="35" r="1.4" />
			<circle cx="74.2" cy="40.6" r="1.4" />
			<circle cx="79.8" cy="40.6" r="1.4" />
			<circle cx="46.2" cy="40.6" r="1.4" style="fill: rgb(217, 97, 54);" />
			<circle cx="51.8" cy="40.6" r="1.4" style="fill: rgb(217, 97, 54);" />
			<circle cx="57.4" cy="40.6" r="1.4" style="fill: rgb(217, 97, 54);" />
			<circle cx="63" cy="40.6" r="1.4" style="" />
			<circle cx="46.2" cy="46.2" r="1.4" style="fill: rgb(217, 97, 54);" />
			<circle cx="51.8" cy="46.2" r="1.4" />
			<circle cx="57.4" cy="46.2" r="1.4" />
			<circle cx="29.4" cy="1.4" r="1.4" />
			<circle cx="18.2" cy="7" r="1.4" />
			<circle cx="23.8" cy="7" r="1.4" />
			<circle cx="29.4" cy="7" r="1.4" />
			<circle cx="23.8" cy="12.6" r="1.4" />
			<circle cx="29.4" cy="12.6" r="1.4" />
			<circle cx="18.2" cy="18.2" r="1.4" />
			<circle cx="23.8" cy="18.2" r="1.4" />
			<circle cx="29.4" cy="18.2" r="1.4" />
			<circle cx="35" cy="18.2" r="1.4" />
			<circle cx="18.2" cy="23.8" r="1.4" />
			<circle cx="23.8" cy="23.8" r="1.4" />
			<circle cx="29.4" cy="23.8" r="1.4" />
			<circle cx="35" cy="23.8" r="1.4" />
			<circle cx="12.6" cy="23.8" r="1.4" />
			<circle cx="18.2" cy="29.4" r="1.4" />
			<circle cx="23.8" cy="29.4" r="1.4" />
			<circle cx="29.4" cy="29.4" r="1.4" />
			<circle cx="35" cy="29.4" r="1.4" />
			<circle cx="40.6" cy="29.4" r="1.4" />
			<circle cx="7" cy="29.4" r="1.4" />
			<circle cx="12.6" cy="29.4" r="1.4" />
			<circle cx="18.2" cy="35" r="1.4" style="fill: rgb(217, 97, 54);" />
			<circle cx="23.8" cy="35" r="1.4" style="fill: rgb(217, 97, 54);" />
			<circle cx="29.4" cy="35" r="1.4" style="fill: rgb(217, 97, 54);" />
			<circle cx="35" cy="35" r="1.4" style="fill: rgb(217, 97, 54);" />
			<circle cx="40.6" cy="35" r="1.4" style="fill: rgb(217, 97, 54);" />
			<circle cx="7" cy="35" r="1.4" />
			<circle cx="12.6" cy="35" r="1.4" style="fill: rgb(217, 97, 54);" />
			<circle cx="18.2" cy="40.6" r="1.4" style="fill: rgb(217, 97, 54);" />
			<circle cx="23.8" cy="40.6" r="1.4" style="fill: rgb(217, 97, 54);" />
			<circle cx="29.4" cy="40.6" r="1.4" style="fill: rgb(217, 97, 54);" />
			<circle cx="35" cy="40.6" r="1.4" style="fill: rgb(217, 97, 54);" />
			<circle cx="40.6" cy="40.6" r="1.4" style="fill: rgb(217, 97, 54);" />
			<circle cx="1.4" cy="40.6" r="1.4" />
			<circle cx="7" cy="40.6" r="1.4" />
			<circle cx="12.6" cy="40.6" r="1.4" style="fill: rgb(217, 97, 54);" />
			<circle cx="18.2" cy="46.2" r="1.4" />
			<circle cx="23.8" cy="46.2" r="1.4" />
			<circle cx="29.4" cy="46.2" r="1.4" />
			<circle cx="35" cy="46.2" r="1.4" />
			<circle cx="40.6" cy="46.2" r="1.4" style="fill: rgb(217, 97, 54);" />
			<circle cx="1.4" cy="46.2" r="1.4" />
			<circle cx="7" cy="46.2" r="1.4" />
			<circle cx="12.6" cy="46.2" r="1.4" />
			<circle cx="46.2" cy="51.8" r="1.4" />
			<circle cx="51.8" cy="51.8" r="1.4" />
			<circle cx="57.4" cy="51.8" r="1.4" />
			<circle cx="46.2" cy="57.4" r="1.4" />
			<circle cx="51.8" cy="57.4" r="1.4" />
			<circle cx="46.2" cy="63" r="1.4" />
			<circle cx="18.2" cy="51.8" r="1.4" />
			<circle cx="23.8" cy="51.8" r="1.4" />
			<circle cx="29.4" cy="51.8" r="1.4" />
			<circle cx="35" cy="51.8" r="1.4" style="fill: rgb(217, 97, 54);" />
			<circle cx="40.6" cy="51.8" r="1.4" style="fill: rgb(217, 97, 54);" />
			<circle cx="7" cy="51.8" r="1.4" />
			<circle cx="12.6" cy="51.8" r="1.4" />
			<circle cx="18.2" cy="57.4" r="1.4" />
			<circle cx="23.8" cy="57.4" r="1.4" />
			<circle cx="29.4" cy="57.4" r="1.4" style="fill: rgb(217, 97, 54);" />
			<circle cx="35" cy="57.4" r="1.4" style="fill: rgb(217, 97, 54);" />
			<circle cx="40.6" cy="57.4" r="1.4" />
			<circle cx="12.6" cy="57.4" r="1.4" />
			<circle cx="18.2" cy="63" r="1.4" />
			<circle cx="23.8" cy="63" r="1.4" style="fill: rgb(217, 97, 54);" />
			<circle cx="29.4" cy="63" r="1.4" style="fill: rgb(217, 97, 54);" />
			<circle cx="35" cy="63" r="1.4" />
			<circle cx="40.6" cy="63" r="1.4" />
			<circle cx="12.6" cy="63" r="1.4" />
			<circle cx="18.2" cy="68.6" r="1.4" style="fill: rgb(122, 184, 55);" />
			<circle cx="23.8" cy="68.6" r="1.4" style="fill: rgb(122, 184, 55);" />
			<circle cx="29.4" cy="68.6" r="1.4" style="fill: rgb(122, 184, 55);" />
			<circle cx="35" cy="68.6" r="1.4" style="fill: rgb(122, 184, 55);" />
			<circle cx="40.6" cy="68.6" r="1.4" />
			<circle cx="12.6" cy="68.6" r="1.4" />
			<circle cx="18.2" cy="74.2" r="1.4" style="fill: rgb(122, 184, 55);" />
			<circle cx="23.8" cy="74.2" r="1.4" style="fill: rgb(122, 184, 55);" />
			<circle cx="29.4" cy="74.2" r="1.4" style="fill: rgb(122, 184, 55);" />
			<circle cx="35" cy="74.2" r="1.4" style="fill: rgb(122, 184, 55);" />
			<circle cx="18.2" cy="79.8" r="1.4" />
			<circle cx="23.8" cy="79.8" r="1.4" style="fill: rgb(122, 184, 55);" />
			<circle cx="29.4" cy="79.8" r="1.4" style="fill: rgb(122, 184, 55);" />
			<circle cx="35" cy="79.8" r="1.4" />
			<circle cx="23.8" cy="85.4" r="1.4" style="fill: rgb(122, 184, 55);" />
			<circle cx="29.4" cy="85.4" r="1.4" style="fill: rgb(122, 184, 55);" />
			<circle cx="35" cy="85.4" r="1.4" />
			<circle cx="23.8" cy="91" r="1.4" style="fill: rgb(122, 184, 55);" />
			<circle cx="29.4" cy="91" r="1.4" style="fill: rgb(122, 184, 55);" />
			<circle cx="23.8" cy="96.6" r="1.4" />
			<circle cx="29.4" cy="96.6" r="1.4" />
		</g>
	</g>

</svg>